<?xml version="1.0" encoding="utf-8"?>
<!-- Generator: Adobe Illustrator 22.1.0, SVG Export Plug-In . SVG Version: 6.00 Build 0)  -->
<svg version="1.1" id="Layer_1" xmlns="http://www.w3.org/2000/svg" xmlns:xlink="http://www.w3.org/1999/xlink" width="200px" height="41.1px"
	 viewBox="0 0 200 41.1" style="enable-background:new 0 0 200 41.1;" xml:space="preserve">
<style type="text/css">
	.st0{fill:#0076BB;}
</style>
<g>
	<path class="st0" d="M15.3,27.9c-1.8-1.6-3.4-2.6-4.6-4.5c-1.1-1.4-1.8-3.3-1.8-5c0-1.7,0.5-3.1,1.4-4.3c1.2-1.8,2.4-3.6,3.4-5.2v0
		c0.5-0.8,1-1.6,1.5-2.5c1-1.8,2.4-3.8,1-6.2h0c0,0,0,0,0,0c0-0.1-0.1-0.1-0.1-0.2c0-0.1-0.1-0.1-0.1-0.1l0,0C15.9,0,15.8,0,15.8,0
		c-0.1,0-0.1,0-0.1,0.1v0c0,0,0,0.1-0.1,0.1c-0.1,0.2-5,6.6-15.2,20c0,0,0,0-0.1,0.1C0.1,20.5,0,20.9,0,21.3v0c0,0.5,0.2,1,0.4,1.4
		h0L6,31.6c0.5,0.9,0.7,2.7,0.7,4.1c0,0.6,0,1.9,0,2.8c0,0.1,0,0.1,0,0.2c0,0.9,0.5,1.7,1.2,2.1c0,0,0,0,0.1,0
		C8.4,41,8.7,41.1,9,41.1c0.1,0,0.2,0,0.3,0c0.3,0,0.5,0,0.9,0h0l6.6,0v-7.5c0-0.5,0-3-0.2-3.6C16.4,29.1,16,28.6,15.3,27.9
		 M24.9,18.4c0-3.8-3.1-6.8-7-6.8c-3.9,0-7,3-7,6.8c0,3.8,3.1,6.8,7,6.8C21.7,25.2,24.9,22.2,24.9,18.4 M35.4,20.2
		c0.2,0.3,0.3,0.7,0.3,1.1v0c0,0.5-0.2,1-0.4,1.4h0l-5.6,8.8c-0.5,0.9-0.7,2.7-0.7,4.1c0,0.6,0,1.9,0,2.8c0,0.1,0,0.1,0,0.2
		c0,0.9-0.5,1.7-1.2,2.1c0,0,0,0-0.1,0c-0.4,0.2-0.6,0.3-0.9,0.3c-0.1,0-0.2,0-0.3,0c-0.3,0-0.5,0-0.9,0h0l-6.6,0v-7.5
		c0-0.5,0-3,0.2-3.6c0.2-0.9,0.6-1.4,1.3-2.1c1.8-1.6,3.4-2.6,4.6-4.5c1.1-1.4,1.8-3.3,1.8-5c0-1.7-0.5-3.1-1.4-4.3
		c-1.2-1.8-2.4-3.6-3.4-5.2l0,0c-0.5-0.8-1-1.6-1.4-2.5c-1-1.8-2.5-3.8-1-6.2c0,0,0,0,0,0c0-0.1,0.1-0.1,0.1-0.2
		c0-0.1,0.1-0.1,0.1-0.1h0l0,0C19.8,0,19.9,0,19.9,0C20,0,20,0,20,0.1h0v0c0,0,0,0.1,0.1,0.1C20.2,0.3,25.1,6.8,35.4,20.2
		C35.3,20.2,35.4,20.2,35.4,20.2"/>
	<path class="st0" d="M123.9,15.6c-0.7-0.8-1.6-1.5-2.7-2c-1.2-0.5-2.6-0.7-4.4-0.7c-1,0-1.9,0.1-2.9,0.4c-1.6,0.5-3,1.5-4.1,2.8
		c-0.1,0.1-0.2,0.3-0.3,0.4v-3h-6.7v0v4.6v19.1h6.7V24.9c0-2.4,0.4-4.1,1.2-5.2c0.1-0.1,0.2-0.2,0.3-0.3l0,0c0.5-0.6,1.2-1.1,2-1.3
		c0.4-0.1,0.9-0.2,1.3-0.2c2,0,3.6,1.2,4.2,3h0c0.3,0.8,0.4,1.9,0.4,3.1v13.4h6.7V22.7c0-1.5-0.1-2.8-0.4-4
		C125,17.5,124.6,16.5,123.9,15.6 M128.3,37.3h6.7V4.5h-6.7V37.3z M199.3,17.5c-0.4-1.1-1.1-2-1.8-2.6c-0.8-0.7-1.7-1.2-2.8-1.5
		c-1.1-0.3-2.3-0.5-3.6-0.5c-1.7,0-3.2,0.4-4.4,1.2c-1.2,0.8-2.2,1.7-3,2.8c-0.7-1.5-1.6-2.5-2.9-3.1c-1.3-0.6-2.7-0.9-4.2-0.9
		c-1.6,0-3,0.3-4.3,1c-1.1,0.6-2.1,1.4-2.9,2.5v-2.8h-6h-0.7v23.7h6.7V23.5c0-1.2,0.2-2.1,0.5-2.8c0.3-0.7,0.8-1.3,1.3-1.6
		c0.5-0.4,1-0.6,1.5-0.8c0.2,0,0.3-0.1,0.5-0.1c0.2,0,0.4,0,0.7,0c2.1,0,3.9,1.5,4.2,3.6c0,0.1,0,0.1,0,0.2c0,0.7,0,1.4,0,2.1v13.3
		h6.7V24.1c0-0.7,0.1-1.5,0.2-2.2c0.1-0.5,0.2-0.9,0.4-1.3c0.6-1.5,2.1-2.5,3.9-2.5c2.1,0,3.8,1.4,4.1,3.3c0,0.1,0,0.1,0,0.2
		c0.1,0.7,0.1,1.4,0.1,2.2v13.4h6.7V21.4C200,19.9,199.8,18.6,199.3,17.5 M93.3,25.7c-0.3,0.2-0.6,0.4-1.1,0.6
		c-0.4,0.1-0.9,0.2-1.4,0.3c-0.5,0.1-1,0.1-1.5,0.2c-0.7,0.1-2.2,0.3-3.3,0.6c-0.1,0-0.1,0-0.2,0.1v0c-1,0.3-1.7,1.1-2,2.1
		c0,0-0.1,0.3-0.1,0.5c0,0,0,0.1,0,0.1c0,0.1,0,0.2,0,0.3c0,0.1,0,0.2,0,0.3c0,0.1,0,0.2,0,0.2v0c0.1,0.4,0.2,0.7,0.4,1
		c0.4,0.6,1,1.1,1.7,1.4c0,0,0.3,0.1,0.5,0.1c0.5,0.1,1.1,0.1,1.6,0.1c1.3,0,2.4-0.2,3.1-0.6c0.7-0.4,1.3-0.9,1.6-1.5
		c0.3-0.6,0.6-1.2,0.6-1.8c0.1-0.6,0.1-1.1,0.1-1.5V25.7z M100.2,35.1c0.1,1,0.3,1.7,0.7,2.2h-6.8c-0.1-0.4-0.2-0.7-0.3-1.1
		c-0.1-0.4-0.1-0.8-0.2-1.2c-1.1,1.1-2.3,1.8-3.8,2.2c-1.5,0.4-3.2,0.6-4.4,0.6c-1.6,0-2.7-0.3-3-0.3c-2.5-0.5-4.7-2.7-5.3-5.3
		c-0.1-0.5-0.1-0.9-0.1-1.4c0-0.4,0-0.7,0.1-1c0.4-2.4,2.1-4.4,4.4-5.3c0,0,0.6-0.2,0.9-0.3c1-0.3,2-0.5,3-0.6c1-0.2,2-0.3,3-0.4
		c1-0.1,1.8-0.2,2.6-0.4c0.2,0,0.4-0.1,0.5-0.2c1.1-0.4,1.8-1.4,1.8-2.5c0-1.1-0.7-2.1-1.7-2.5c0,0,0,0,0,0
		c-0.6-0.3-1.4-0.4-2.5-0.4c-0.8,0-1.5,0.1-2,0.3h0c-1,0.3-1.8,1-2.1,1.9c-0.2,0.6-0.3,1.3-0.4,1.9h-6.7v0c0,0,0-0.1,0-0.1v0
		c0-2.2,1.1-4.6,2.8-5.8c0,0,0,0,0.1-0.1c0,0,0.1,0,0.1-0.1c0,0,0,0,0.1-0.1l0,0c0.3-0.2,0.6-0.4,0.9-0.6c1.1-0.6,2.3-1,3.6-1.3
		c1.3-0.3,2.7-0.4,4.1-0.4c1.2,0,2.5,0.1,3.7,0.3c1,0.1,2,0.4,2.8,0.7c2.1,0.9,3.6,2.8,4.1,5c0.1,0.4,0.1,0.8,0.1,1.2
		c0,0,0,0.1,0,0.1V32C100.1,33.1,100.1,34.1,100.2,35.1 M153.3,25.7c-0.3,0.2-0.6,0.4-1.1,0.6c-0.4,0.1-0.9,0.2-1.4,0.3
		c-0.5,0.1-1,0.1-1.5,0.2c-0.7,0.1-2.2,0.3-3.3,0.6c-0.1,0-0.1,0-0.2,0.1v0c-1,0.3-1.7,1.1-2,2.1c0,0-0.1,0.3-0.1,0.5
		c0,0,0,0.1,0,0.1c0,0.1,0,0.2,0,0.3c0,0.1,0,0.2,0,0.3c0,0.1,0,0.2,0,0.2v0c0.1,0.4,0.2,0.7,0.4,1c0.4,0.6,1,1.1,1.7,1.4
		c0,0,0.2,0.1,0.5,0.1c0.5,0.1,1.1,0.1,1.6,0.1c1.3,0,2.4-0.2,3.1-0.6c0.7-0.4,1.3-0.9,1.6-1.5c0.3-0.6,0.6-1.2,0.6-1.8
		c0.1-0.6,0.1-1.1,0.1-1.5V25.7z M160.2,35.1c0.1,1,0.3,1.7,0.7,2.2H154c-0.1-0.4-0.2-0.7-0.3-1.1c-0.1-0.4-0.1-0.8-0.2-1.2
		c-1.1,1.1-2.3,1.8-3.8,2.2c-1.5,0.4-3.2,0.6-4.4,0.6c-1.6,0-2.7-0.3-3-0.3c-2.5-0.5-4.7-2.7-5.2-5.3c-0.1-0.5-0.1-0.9-0.1-1.4
		c0-0.4,0-0.7,0.1-1c0.4-2.4,2.1-4.4,4.4-5.3c0,0,0.6-0.2,0.9-0.3c1-0.3,2-0.5,3-0.6c1-0.2,2-0.3,3-0.4c1-0.1,1.8-0.2,2.6-0.4
		c0.2,0,0.4-0.1,0.5-0.2c1.1-0.4,1.8-1.4,1.8-2.5c0-1.1-0.7-2.1-1.7-2.5c0,0,0,0-0.1,0c-0.6-0.3-1.4-0.4-2.5-0.4
		c-0.8,0-1.5,0.1-2,0.3h0c-1,0.3-1.8,1-2.1,1.9c-0.2,0.6-0.3,1.3-0.4,1.9h-6.7l0,0c0,0,0-0.1,0-0.1l0,0c0-2.2,1.1-4.6,2.8-5.8
		c0,0,0,0,0.1-0.1c0,0,0,0,0.1-0.1c0,0,0,0,0.1-0.1l0,0c0.3-0.2,0.6-0.4,0.9-0.6c1.1-0.6,2.3-1,3.6-1.3c1.3-0.3,2.7-0.4,4.1-0.4
		c1.2,0,2.5,0.1,3.7,0.3c1,0.1,2,0.4,2.8,0.7c2.1,0.9,3.6,2.8,4.1,5c0.1,0.4,0.1,0.8,0.1,1.2c0,0,0,0.1,0,0.1V32
		C160,33.1,160.1,34.1,160.2,35.1 M74.8,25.2c0.6,1,0.8,2.1,0.8,3.6c0,1.7-0.4,3.2-1.2,4.3c-0.8,1.2-1.9,2.2-3.1,2.9
		c-1.3,0.7-2.7,1.3-4.3,1.6c-1.6,0.3-3.1,0.5-4.7,0.5c-1.9,0-3.6-0.2-5.2-0.6c-1.6-0.4-3-1-4.2-1.9c-1.2-0.8-2.1-1.9-2.8-3.1
		c-0.7-1.2-1-2.7-1.1-4.4h6.6c0.2,1.9,0.9,3.2,2.2,3.9c1.3,0.7,2.8,1.1,4.5,1.1c0.6,0,1.3,0,2.1-0.1c0.8-0.1,1.5-0.3,2.2-0.5
		c0.5-0.2,0.9-0.4,1.3-0.8c0.6-0.6,1-1.3,1-2.2c0-0.9-0.4-1.7-1-2.2l0,0c-0.6-0.5-1.3-0.9-2.1-1.2c-0.9-0.3-1.9-0.6-3.1-0.8
		c-1.2-0.2-2.3-0.5-3.5-0.7c-1.2-0.3-2.4-0.6-3.5-0.9c-1.1-0.4-2.1-0.9-3-1.5c-0.9-0.6-1.6-1.4-2.2-2.4c-0.5-1-0.8-2.2-0.8-3.6
		c0-1.6,0.4-2.9,1.2-3.9c0.8-1.1,1.8-1.9,3-2.6c1.2-0.6,2.5-1.1,4-1.4c1.5-0.3,2.9-0.4,4.2-0.4c1.5,0,3,0.2,4.4,0.5
		C68,8.5,69.2,9,70.4,9.7c1.1,0.7,2.1,1.6,2.8,2.8c0.7,1.1,1.2,2.5,1.4,4.1h-6.8c-0.3-1.5-1-2.5-2.2-3.1c-1.1-0.5-2.4-0.8-3.9-0.8
		c-0.5,0-1,0-1.6,0.1c-0.6,0.1-1.1,0.2-1.6,0.4c-1.1,0.4-1.8,1.4-1.8,2.6c0,1,0.5,1.8,1.3,2.3c0.2,0.1,0.4,0.2,0.6,0.3
		c0,0,0.3,0.1,0.3,0.2c0,0,0.4,0.1,0.4,0.2c0.9,0.3,1.9,0.6,3.1,0.8c1.2,0.2,2.3,0.5,3.6,0.7c1.2,0.3,2.4,0.6,3.5,0.9
		c1.2,0.4,2.2,0.9,3.1,1.5C73.5,23.4,74.2,24.2,74.8,25.2"/>
</g>
</svg>
